<?xml version="1.0" standalone="no"?>
<!DOCTYPE svg PUBLIC "-//W3C//DTD SVG 20010904//EN"
 "http://www.w3.org/TR/2001/REC-SVG-20010904/DTD/svg10.dtd">
<svg version="1.0" xmlns="http://www.w3.org/2000/svg"
 width="50.000000pt" height="50.000000pt" viewBox="0 0 50.000000 50.000000"
 preserveAspectRatio="xMidYMid meet">

<g transform="translate(0.000000,50.000000) scale(0.100000,-0.100000)"
fill="#000000" stroke="none">
<path d="M190 395 c0 -13 11 -15 62 -13 38 2 63 8 66 16 3 9 -14 12 -62 12
-53 0 -66 -3 -66 -15z"/>
<path d="M100 329 c0 -6 9 -13 20 -16 18 -5 20 -14 20 -103 0 -127 3 -130 115
-130 109 0 115 7 115 137 0 76 3 93 15 93 8 0 15 7 15 15 0 13 -23 15 -150 15
-102 0 -150 -4 -150 -11z m135 -120 c0 -50 -3 -64 -15 -64 -11 0 -16 14 -18
54 -4 61 3 84 21 78 8 -2 12 -25 12 -68z m65 1 c0 -56 -3 -70 -15 -70 -12 0
-15 14 -15 63 0 35 3 67 7 70 17 18 23 1 23 -63z"/>
</g>
</svg>
